<svg width="40" height="40" viewBox="0 0 100 100" fill="none" xmlns="http://www.w3.org/2000/svg">
  <!-- Arc de cercle décoratif en haut à gauche -->
  <path d="M 5 8 Q 15 3, 25 8" stroke="white" stroke-width="2" fill="none" stroke-linecap="round"/>
  
  <!-- Figures stylisées en progression (de gauche à droite, de petite à grande) -->
  <!-- Figure 1 (la plus petite) -->
  <g transform="translate(12, 65)">
    <circle cx="0" cy="0" r="3" fill="white"/>
    <path d="M 0 3 Q -2 8, -1 12 Q 0 10, 1 12 Q 2 8, 0 3" stroke="white" stroke-width="1.5" fill="none" stroke-linecap="round"/>
    <path d="M -1 8 L -3 12" stroke="white" stroke-width="1.5" stroke-linecap="round"/>
    <path d="M 1 8 L 3 12" stroke="white" stroke-width="1.5" stroke-linecap="round"/>
    <path d="M -1 12 L -2 18" stroke="white" stroke-width="1.5" stroke-linecap="round"/>
    <path d="M 1 12 L 2 18" stroke="white" stroke-width="1.5" stroke-linecap="round"/>
  </g>
  
  <!-- Figure 2 -->
  <g transform="translate(23, 60)">
    <circle cx="0" cy="0" r="3.5" fill="white"/>
    <path d="M 0 3.5 Q -2.5 9, -1.5 14 Q 0 12, 1.5 14 Q 2.5 9, 0 3.5" stroke="white" stroke-width="1.5" fill="none" stroke-linecap="round"/>
    <path d="M -1.5 10 L -4 15" stroke="white" stroke-width="1.5" stroke-linecap="round"/>
    <path d="M 1.5 10 L 4 15" stroke="white" stroke-width="1.5" stroke-linecap="round"/>
    <path d="M -1.5 14 L -2.5 20" stroke="white" stroke-width="1.5" stroke-linecap="round"/>
    <path d="M 1.5 14 L 2.5 20" stroke="white" stroke-width="1.5" stroke-linecap="round"/>
    <!-- Connexion avec la figure précédente -->
    <path d="M -4 15 L -3 12" stroke="white" stroke-width="1.5" stroke-linecap="round"/>
  </g>
  
  <!-- Figure 3 -->
  <g transform="translate(36, 55)">
    <circle cx="0" cy="0" r="4" fill="white"/>
    <path d="M 0 4 Q -3 10, -2 16 Q 0 14, 2 16 Q 3 10, 0 4" stroke="white" stroke-width="1.5" fill="none" stroke-linecap="round"/>
    <path d="M -2 11 L -5 17" stroke="white" stroke-width="1.5" stroke-linecap="round"/>
    <path d="M 2 11 L 5 17" stroke="white" stroke-width="1.5" stroke-linecap="round"/>
    <path d="M -2 16 L -3 22" stroke="white" stroke-width="1.5" stroke-linecap="round"/>
    <path d="M 2 16 L 3 22" stroke="white" stroke-width="1.5" stroke-linecap="round"/>
    <!-- Connexion -->
    <path d="M -5 17 L -4 15" stroke="white" stroke-width="1.5" stroke-linecap="round"/>
  </g>
  
  <!-- Figure 4 -->
  <g transform="translate(50, 50)">
    <circle cx="0" cy="0" r="4.5" fill="white"/>
    <path d="M 0 4.5 Q -3.5 11, -2.5 18 Q 0 16, 2.5 18 Q 3.5 11, 0 4.5" stroke="white" stroke-width="1.5" fill="none" stroke-linecap="round"/>
    <path d="M -2.5 12 L -6 19" stroke="white" stroke-width="1.5" stroke-linecap="round"/>
    <path d="M 2.5 12 L 6 19" stroke="white" stroke-width="1.5" stroke-linecap="round"/>
    <path d="M -2.5 18 L -3.5 24" stroke="white" stroke-width="1.5" stroke-linecap="round"/>
    <path d="M 2.5 18 L 3.5 24" stroke="white" stroke-width="1.5" stroke-linecap="round"/>
    <!-- Connexion -->
    <path d="M -6 19 L -5 17" stroke="white" stroke-width="1.5" stroke-linecap="round"/>
  </g>
  
  <!-- Figure 5 -->
  <g transform="translate(65, 45)">
    <circle cx="0" cy="0" r="5" fill="white"/>
    <path d="M 0 5 Q -4 12, -3 20 Q 0 18, 3 20 Q 4 12, 0 5" stroke="white" stroke-width="1.5" fill="none" stroke-linecap="round"/>
    <path d="M -3 13 L -7 21" stroke="white" stroke-width="1.5" stroke-linecap="round"/>
    <path d="M 3 13 L 7 21" stroke="white" stroke-width="1.5" stroke-linecap="round"/>
    <path d="M -3 20 L -4 26" stroke="white" stroke-width="1.5" stroke-linecap="round"/>
    <path d="M 3 20 L 4 26" stroke="white" stroke-width="1.5" stroke-linecap="round"/>
    <!-- Connexion -->
    <path d="M -7 21 L -6 19" stroke="white" stroke-width="1.5" stroke-linecap="round"/>
  </g>
  
  <!-- Figure 6 (la plus grande) -->
  <g transform="translate(80, 40)">
    <circle cx="0" cy="0" r="5.5" fill="white"/>
    <path d="M 0 5.5 Q -4.5 13, -3.5 22 Q 0 20, 3.5 22 Q 4.5 13, 0 5.5" stroke="white" stroke-width="1.5" fill="none" stroke-linecap="round"/>
    <path d="M -3.5 14 L -8 23" stroke="white" stroke-width="1.5" stroke-linecap="round"/>
    <path d="M 3.5 14 L 8 23" stroke="white" stroke-width="1.5" stroke-linecap="round"/>
    <path d="M -3.5 22 L -4.5 28" stroke="white" stroke-width="1.5" stroke-linecap="round"/>
    <path d="M 3.5 22 L 4.5 28" stroke="white" stroke-width="1.5" stroke-linecap="round"/>
    <!-- Connexion -->
    <path d="M -8 23 L -7 21" stroke="white" stroke-width="1.5" stroke-linecap="round"/>
  </g>
</svg>
